# Blender 4.1.1
# www.blender.org
mtllib room.mtl
o Cube
v 2.791297 4.618136 -2.791297
v 3.000000 -0.216011 -3.000000
v 2.791297 4.618136 2.791297
v 3.000000 -0.216011 3.000000
v -2.791297 4.618136 -2.791297
v -3.000000 -0.216011 -3.000000
v -2.791297 4.618136 2.791297
v -3.000000 -0.216011 3.000000
v 3.000000 4.618136 3.000000
v -3.000000 4.618136 3.000000
v 3.000000 4.618136 -3.000000
v -3.000000 4.618136 -3.000000
vn -0.0000 1.0000 -0.0000
vn -0.0000 -0.0000 1.0000
vn -1.0000 -0.0000 -0.0000
vn -0.0000 -1.0000 -0.0000
vn 1.0000 -0.0000 -0.0000
vn -0.0000 -0.0000 -1.0000
vt 0.633696 0.508696
vt 0.866304 0.508696
vt 0.866304 0.741304
vt 0.633696 0.741304
vt 0.375000 0.750000
vt 0.625000 0.750000
vt 0.625000 1.000000
vt 0.375000 1.000000
vt 0.375000 0.000000
vt 0.625000 0.000000
vt 0.625000 0.250000
vt 0.375000 0.250000
vt 0.125000 0.500000
vt 0.375000 0.500000
vt 0.125000 0.750000
vt 0.625000 0.500000
vt 0.875000 0.750000
vt 0.875000 0.500000
s 0
usemtl Material
f 1/1/1 5/2/1 7/3/1 3/4/1
f 4/5/2 9/6/2 10/7/2 8/8/2
f 8/9/3 10/10/3 12/11/3 6/12/3
f 6/13/4 2/14/4 4/5/4 8/15/4
f 2/14/5 11/16/5 9/6/5 4/5/5
f 6/12/6 12/11/6 11/16/6 2/14/6
f 3/4/1 7/3/1 10/17/1 9/6/1
f 1/1/1 3/4/1 9/6/1 11/16/1
f 7/3/1 5/2/1 12/18/1 10/17/1
f 5/2/1 1/1/1 11/16/1 12/18/1
